<svg width="18" height="18" fill="none" xmlns="http://www.w3.org/2000/svg"><g clip-path="url(#a)"><path fill-rule="evenodd" clip-rule="evenodd" d="M17.6 4.7c.1-.4 0-.7-.6-.7h-2c-.5 0-.7.3-.8.5 0 0-1 2.4-2.5 4-.4.5-.6.6-.9.6-.1 0-.3-.1-.3-.6V4.7c0-.5-.1-.7-.5-.7H6.9c-.3 0-.5.2-.5.4 0 .5.7.6.7 2v2.8c0 .6 0 .7-.3.7-.7 0-2.3-2.4-3.3-5.1-.2-.6-.4-.8-.9-.8h-2c-.5 0-.6.3-.6.5 0 .6.7 3.1 3.1 6.5 1.6 2.3 4 3.5 6 3.5 1.3 0 1.4-.3 1.4-.8V12c0-.5.1-.7.5-.7.3 0 .8.2 2 1.3 1.3 1.3 1.6 1.9 2.3 1.9h2c.5 0 .8-.3.7-.8-.2-.6-.9-1.4-1.7-2.3-.5-.5-1.2-1-1.4-1.4-.3-.4-.2-.5 0-.8 0 0 2.4-3.4 2.7-4.5Z" fill="#D22856"/></g><defs><clipPath id="a"><path fill="#fff" d="M0 0h18v18H0z"/></clipPath></defs></svg>